<svg xmlns="http://www.w3.org/2000/svg" xmlns:xlink="http://www.w3.org/1999/xlink" version="1.1" x="0px" y="0px" viewBox="0 0 100 125" style="enable-background:new 0 0 100 100;" xml:space="preserve" width="25" height="25"><path fill="#60a9de" d="M74.5898743,38.44767c-6.7601929-1.8388672-12.0976562-6.8618774-14.5587769-13.4210815  C57.1122742,17.2475967,50.3627625,8.4939346,34.76651,8.4777603C19.526886,8.4619522,7.1968079,20.9103165,7.1968079,36.1498795  v52.9088135c0,1.3605957,1.1029053,2.463562,2.463501,2.463562h39.0762329h13.5130005h28.0900269  c1.3605957,0,2.463623-1.1029663,2.463623-2.463562V59.9414444C92.8031921,46.3599014,83.0693665,40.7542496,74.5898743,38.44767z   M19.7331238,86.6130753c0,0.3272705-0.2653198,0.5925293-0.5925903,0.5925293h-7.210083  c-0.3272705,0-0.5925293-0.2652588-0.5925293-0.5925293v-18.848938h6.5316772v9.3432617  c0,0.5335083,0.4324951,0.9660645,0.9660034,0.9660645h0.897522V86.6130753z M31.221283,86.6130753  c0,0.3272705-0.2653198,0.5925293-0.5925903,0.5925293h-7.210083c-0.3272705,0-0.5925903-0.2652588-0.5925903-0.5925293v-8.5396118  h0.897522c0.5335083,0,0.9660645-0.4325562,0.9660645-0.9660645v-9.3432617h4.628479v9.3432617  c0,0.5335083,0.4324951,0.9660645,0.9660034,0.9660645h0.9371948V86.6130753z M42.7093811,86.6130753  c0,0.3272705-0.2652588,0.5925293-0.5925293,0.5925293h-7.210083c-0.3272705,0-0.5925903-0.2652588-0.5925903-0.5925293v-8.5396118  h0.8578491c0.5335083,0,0.9660034-0.4325562,0.9660034-0.9660645v-9.3432617h6.5713501V86.6130753z M54.1975403,86.6130753  c0,0.3272705-0.2653198,0.5925293-0.5925903,0.5925293h-7.210022c-0.3272705,0-0.5925903-0.2652588-0.5925903-0.5925293v-18.848938  h6.5064697v9.3432617c0,0.5335083,0.4324951,0.9660645,0.9660645,0.9660645h0.9226685V86.6130753z M65.6856995,86.6130753  c0,0.3272705-0.2653198,0.5925293-0.5925903,0.5925293h-7.210083c-0.3272705,0-0.5924683-0.2652588-0.5924683-0.5925293v-8.5396118  h0.8721924c0.5335693,0,0.9660645-0.4325562,0.9660645-0.9660645v-9.3432617h4.628479v9.3432617  c0,0.5335083,0.4324951,0.9660645,0.9660645,0.9660645h0.9623413V86.6130753z M77.1738586,86.6130753  c0,0.3272705-0.2653198,0.5925293-0.5925293,0.5925293h-7.210144c-0.3272705,0-0.5925293-0.2652588-0.5925293-0.5925293v-8.5396118  h0.8325806c0.5335083,0,0.9660645-0.4325562,0.9660645-0.9660645v-9.3432617h4.628479v9.3432617  c0,0.5335083,0.4324951,0.9660645,0.9660034,0.9660645h1.0020752V86.6130753z M88.6619568,86.6130753  c0,0.3272705-0.2652588,0.5925293-0.5924683,0.5925293h-7.210144c-0.3272095,0-0.5925293-0.2652588-0.5925293-0.5925293v-8.5396118  h0.7929077c0.5335083,0,0.9660034-0.4325562,0.9660034-0.9660645v-9.3432617h6.6362305V86.6130753z"/></svg>