<svg xmlns:dc="http://purl.org/dc/elements/1.1/" xmlns:cc="http://creativecommons.org/ns#" xmlns:rdf="http://www.w3.org/1999/02/22-rdf-syntax-ns#" xmlns:svg="http://www.w3.org/2000/svg" xmlns="http://www.w3.org/2000/svg" xmlns:sodipodi="http://sodipodi.sourceforge.net/DTD/sodipodi-0.dtd" xmlns:inkscape="http://www.inkscape.org/namespaces/inkscape" viewBox="0 0 26.458334 33.07291625" version="1.1" x="0px" y="0px" height="26" width="26"><g transform="translate(0,-270.54168)"><path style="display:inline;opacity:1;fill:#4a8cca;fill-opacity:1;stroke:none;stroke-width:0.67994386;stroke-linecap:round;stroke-linejoin:round;stroke-miterlimit:4;stroke-dasharray:none;stroke-opacity:1;paint-order:stroke markers fill" d="m 1.3126857,271.67744 c 0,0 0.1708641,0.20774 0.3076816,0.4576 -0.1018114,0.1293 -0.158192,0.27731 -0.06389,0.44285 0.012873,0.019 0.032476,0.0434 0.054334,0.0683 l -0.2561071,0.24059 c 0,0 0.2116958,0.22745 0.3224129,0.29797 0.082451,0.0529 0.1377911,0.0561 0.2247551,0.0377 0.1099184,-0.0232 0.2049903,-0.0806 0.2931778,-0.15305 0.1120731,0.12216 0.2027795,0.215 0.2027795,0.215 l 0.097844,-0.0892 0.6107134,0.73813 c -8.775e-4,8.7e-4 -0.00354,0.002 -0.00699,0.002 l -0.6833513,0.64109 -0.06206,-0.0641 c -0.2044707,-0.21087 -0.3342461,-0.0786 -0.5482932,0.1223 -0.2140207,0.20114 -0.2296614,0.48883 -0.028414,0.70292 l 0.1157047,0.12307 c 0.2011257,0.21405 0.4691272,0.22241 0.6831944,0.0215 0.2140457,-0.20112 0.3818088,-0.34748 0.1767645,-0.55873 l -0.049232,-0.0503 0.6634993,-0.62399 0.6611133,0.79895 c -0.00776,0.007 -0.01521,0.0112 -0.023512,0.0156 l -0.6833498,0.64107 -0.06206,-0.0641 c -0.2044854,-0.21084 -0.3342328,-0.0787 -0.5482984,0.12231 l -1.156e-4,10e-5 c -0.2140124,0.20115 -0.2296529,0.48884 -0.02865,0.70292 l 0.1155355,0.12306 c 0.2011516,0.21406 0.4691585,0.22254 0.6832208,0.0214 0.2140554,-0.20113 0.3817997,-0.34747 0.1767562,-0.55873 l -0.04909,-0.0502 0.6776401,-0.63738 c 6.072e-4,-5.6e-4 6.202e-4,-7.2e-4 8.767e-4,-8.5e-4 l 0.018724,0.0216 4.754336,5.39812 c -1.3074213,1.72858 -1.3782271,4.09553 -0.1028724,5.32226 0.6060032,0.58284 1.3065473,1.01562 1.9981983,1.36874 0.193151,0.0985 0.058,0.53407 0.250706,0.63654 0.07335,0.0391 0.160499,0.14502 0.266387,0.0738 0.196769,-0.13286 0.162064,-0.42102 0.535525,-0.40475 0.961336,0.042 1.422338,0.71491 1.88025,1.31107 0.641667,0.83554 0.949863,1.73968 -0.133396,2.73518 -0.01148,0.13672 -0.0037,0.32785 0.17122,0.39205 0.163518,0.0601 0.336075,0.18865 0.467789,0.2998 0.159893,0.13546 0.352043,0.62098 0.382012,0.69225 0.981387,2.33113 2.135843,3.198 4.575182,3.05351 1.278842,-0.0755 2.494627,-0.63367 3.472005,-1.48152 -0.317738,-0.37203 -1.495891,-1.72889 -2.30435,-2.32324 -0.870304,-0.63983 -2.752347,-1.45671 -2.752347,-1.45671 0,0 0.427809,-0.91617 0.809569,-1.27032 0.356409,-0.33023 1.278593,-0.65485 1.278593,-0.65485 0,0 0.766435,1.9179 1.397,2.81195 0.559809,0.79375 1.840097,1.96213 2.207285,2.291 0.8738,-0.9128 1.480972,-2.06666 1.632833,-3.30897 0.296507,-2.42556 -0.496476,-3.6321 -2.761845,-4.75693 -0.06958,-0.034 -0.542222,-0.25618 -0.667061,-0.42449 -0.102794,-0.13846 -0.220298,-0.31861 -0.270024,-0.48565 -0.05315,-0.17857 -0.243409,-0.19776 -0.380627,-0.19524 -1.06133,1.01881 -1.944306,0.65498 -2.738175,-0.0377 -0.566673,-0.49396 -1.209221,-0.99636 -1.191074,-1.95846 0.007,-0.37379 0.292677,-0.32096 0.43732,-0.50922 0.07814,-0.10113 -0.02232,-0.19507 -0.05685,-0.27053 -0.09048,-0.19851 -0.533287,-0.0909 -0.619601,-0.29007 -0.308936,-0.71246 -0.697418,-1.43854 -1.241288,-2.07972 -1.136027,-1.33918 -3.475553,-1.42565 -5.276968,-0.25712 l -5.6778271,-5.71364 0.6463106,-0.60774 0.047471,0.0521 c 0.1141754,0.11545 0.1582824,-0.24538 0.3724831,-0.4464 0.2140469,-0.20115 0.4187592,-0.16414 0.2176526,-0.37827 l -0.1155537,-0.12306 c -0.1859188,-0.17816 -0.1992288,-0.10947 -0.4379045,0.19865 -0.177552,0.20312 -0.5370615,0.23683 -0.4217662,0.32546 l 0.059436,0.0664 -0.6596013,0.62032 -0.5690547,-0.57279 0.6439952,-0.60556 0.04747,0.0521 c 0.1142306,0.11546 0.1582605,-0.24519 0.3724603,-0.4462 0.2140479,-0.20115 0.4188295,-0.16417 0.2176491,-0.37845 l -0.1158367,-0.12307 c -0.1859353,-0.17818 -0.1991834,-0.10947 -0.4378287,0.19875 -0.1776196,0.20302 -0.537246,0.23688 -0.4219493,0.32546 l 0.059345,0.0664 -0.6572679,0.61812 -0.2411459,-0.2425 0.088676,-0.0823 c 0,0 -0.1018664,-0.10956 -0.2354485,-0.24361 0.066518,-0.0841 0.1209755,-0.17505 0.1506041,-0.27809 0.029527,-0.10314 0.047468,-0.15432 -0.00734,-0.25387 -0.055941,-0.10097 -0.2681739,-0.2854 -0.2681739,-0.2854 l -0.2903649,0.27287 c -0.031645,-0.0298 -0.061588,-0.058 -0.085544,-0.0762 -0.161691,-0.12253 -0.2814975,-0.0738 -0.4019553,0.027 -0.2432173,-0.13237 -0.4472932,-0.30913 -0.4472932,-0.30913 0,0 -0.027915,0.12634 -0.066444,0.16226 -0.041473,0.038 -0.1761773,0.0597 -0.1761773,0.0597 0,0 -0.018801,0.11806 -0.05258,0.14968 -0.034641,0.0317 -0.1554093,0.0399 -0.1554093,0.0399 z"/></g></svg>